<?xml version="1.0" encoding="UTF-8" standalone="no"?>
<!DOCTYPE svg PUBLIC "-//W3C//DTD SVG 1.1//EN"
 "http://www.w3.org/Graphics/SVG/1.1/DTD/svg11.dtd">
<!-- Generated by graphviz version 2.43.0 (0)
 -->
<!-- Title: sbox Pages: 1 -->
<svg width="518pt" height="1052pt"
 viewBox="0.00 0.00 518.23 1052.00" xmlns="http://www.w3.org/2000/svg" xmlns:xlink="http://www.w3.org/1999/xlink">
<g id="graph0" class="graph" transform="scale(1 1) rotate(0) translate(4 1048)">
<title>sbox</title>
<polygon fill="white" stroke="transparent" points="-4,4 -4,-1048 514.23,-1048 514.23,4 -4,4"/>
<!-- gt0 -->
<g id="node1" class="node">
<title>gt0</title>
<ellipse fill="none" stroke="black" cx="155.04" cy="-1026" rx="30.59" ry="18"/>
<text text-anchor="middle" x="155.04" y="-1022.3" font-family="Times,serif" font-size="14.00">IN 0</text>
</g>
<!-- gt6 -->
<g id="node7" class="node">
<title>gt6</title>
<ellipse fill="none" stroke="black" cx="310.04" cy="-954" rx="32.49" ry="18"/>
<text text-anchor="middle" x="310.04" y="-950.3" font-family="Times,serif" font-size="14.00">AND</text>
</g>
<!-- gt0&#45;&gt;gt6 -->
<g id="edge2" class="edge">
<title>gt0&#45;&gt;gt6</title>
<path fill="none" stroke="black" d="M178.58,-1014.37C204.52,-1002.65 246.49,-983.7 276.01,-970.37"/>
<polygon fill="black" stroke="black" points="277.83,-973.38 285.5,-966.08 274.95,-967.01 277.83,-973.38"/>
</g>
<!-- gt13 -->
<g id="node14" class="node">
<title>gt13</title>
<ellipse fill="none" stroke="black" cx="230.04" cy="-522" rx="32.49" ry="18"/>
<text text-anchor="middle" x="230.04" y="-518.3" font-family="Times,serif" font-size="14.00">AND</text>
</g>
<!-- gt0&#45;&gt;gt13 -->
<g id="edge16" class="edge">
<title>gt0&#45;&gt;gt13</title>
<path fill="none" stroke="black" d="M155.04,-1007.95C155.04,-981.29 155.04,-928.11 155.04,-883 155.04,-883 155.04,-883 155.04,-665 155.04,-618.51 186.86,-572.34 209.04,-545.79"/>
<polygon fill="black" stroke="black" points="211.7,-548.07 215.57,-538.21 206.4,-543.5 211.7,-548.07"/>
</g>
<!-- gt21 -->
<g id="node22" class="node">
<title>gt21</title>
<ellipse fill="none" stroke="black" cx="104.04" cy="-450" rx="27" ry="18"/>
<text text-anchor="middle" x="104.04" y="-446.3" font-family="Times,serif" font-size="14.00">OR</text>
</g>
<!-- gt0&#45;&gt;gt21 -->
<g id="edge32" class="edge">
<title>gt0&#45;&gt;gt21</title>
<path fill="none" stroke="black" d="M129.95,-1015.48C86.31,-997.08 1.04,-952.28 1.04,-883 1.04,-883 1.04,-883 1.04,-593 1.04,-552.55 -3.11,-537.17 20.04,-504 32.61,-485.98 53.47,-472.77 71.26,-464.05"/>
<polygon fill="black" stroke="black" points="73.14,-467.03 80.75,-459.66 70.21,-460.68 73.14,-467.03"/>
</g>
<!-- gt1 -->
<g id="node2" class="node">
<title>gt1</title>
<ellipse fill="none" stroke="black" cx="429.04" cy="-450" rx="30.59" ry="18"/>
<text text-anchor="middle" x="429.04" y="-446.3" font-family="Times,serif" font-size="14.00">IN 1</text>
</g>
<!-- gt15 -->
<g id="node16" class="node">
<title>gt15</title>
<ellipse fill="none" stroke="black" cx="427.04" cy="-378" rx="27" ry="18"/>
<text text-anchor="middle" x="427.04" y="-374.3" font-family="Times,serif" font-size="14.00">OR</text>
</g>
<!-- gt1&#45;&gt;gt15 -->
<g id="edge20" class="edge">
<title>gt1&#45;&gt;gt15</title>
<path fill="none" stroke="black" d="M428.54,-431.7C428.32,-423.98 428.06,-414.71 427.81,-406.11"/>
<polygon fill="black" stroke="black" points="431.31,-406 427.52,-396.1 424.31,-406.2 431.31,-406"/>
</g>
<!-- gt17 -->
<g id="node18" class="node">
<title>gt17</title>
<ellipse fill="none" stroke="black" cx="349.04" cy="-378" rx="31.4" ry="18"/>
<text text-anchor="middle" x="349.04" y="-374.3" font-family="Times,serif" font-size="14.00">XOR</text>
</g>
<!-- gt1&#45;&gt;gt17 -->
<g id="edge23" class="edge">
<title>gt1&#45;&gt;gt17</title>
<path fill="none" stroke="black" d="M412.46,-434.5C401.2,-424.64 386.11,-411.44 373.47,-400.38"/>
<polygon fill="black" stroke="black" points="375.42,-397.44 365.59,-393.49 370.81,-402.7 375.42,-397.44"/>
</g>
<!-- gt2 -->
<g id="node3" class="node">
<title>gt2</title>
<ellipse fill="none" stroke="black" cx="310.04" cy="-1026" rx="30.59" ry="18"/>
<text text-anchor="middle" x="310.04" y="-1022.3" font-family="Times,serif" font-size="14.00">IN 2</text>
</g>
<!-- gt2&#45;&gt;gt6 -->
<g id="edge1" class="edge">
<title>gt2&#45;&gt;gt6</title>
<path fill="none" stroke="black" d="M310.04,-1007.7C310.04,-999.98 310.04,-990.71 310.04,-982.11"/>
<polygon fill="black" stroke="black" points="313.54,-982.1 310.04,-972.1 306.54,-982.1 313.54,-982.1"/>
</g>
<!-- gt9 -->
<g id="node10" class="node">
<title>gt9</title>
<ellipse fill="none" stroke="black" cx="376.04" cy="-810" rx="75.29" ry="18"/>
<text text-anchor="middle" x="376.04" y="-806.3" font-family="Times,serif" font-size="14.00">NOT A AND B</text>
</g>
<!-- gt2&#45;&gt;gt9 -->
<g id="edge8" class="edge">
<title>gt2&#45;&gt;gt9</title>
<path fill="none" stroke="black" d="M324.9,-1010.12C333.93,-1000.17 344.88,-986.32 351.04,-972 370.02,-927.88 374.82,-871.45 375.9,-838.46"/>
<polygon fill="black" stroke="black" points="379.4,-838.3 376.14,-828.22 372.4,-838.14 379.4,-838.3"/>
</g>
<!-- gt19 -->
<g id="node20" class="node">
<title>gt19</title>
<ellipse fill="none" stroke="black" cx="96.04" cy="-738" rx="31.4" ry="18"/>
<text text-anchor="middle" x="96.04" y="-734.3" font-family="Times,serif" font-size="14.00">XOR</text>
</g>
<!-- gt2&#45;&gt;gt19 -->
<g id="edge27" class="edge">
<title>gt2&#45;&gt;gt19</title>
<path fill="none" stroke="black" d="M281.28,-1019.77C253.01,-1013.21 210.38,-999.34 184.04,-972 127.25,-913.07 106.33,-813.93 99.28,-766.24"/>
<polygon fill="black" stroke="black" points="102.71,-765.5 97.88,-756.07 95.78,-766.46 102.71,-765.5"/>
</g>
<!-- gt3 -->
<g id="node4" class="node">
<title>gt3</title>
<ellipse fill="none" stroke="black" cx="224.04" cy="-954" rx="30.59" ry="18"/>
<text text-anchor="middle" x="224.04" y="-950.3" font-family="Times,serif" font-size="14.00">IN 3</text>
</g>
<!-- gt7 -->
<g id="node8" class="node">
<title>gt7</title>
<ellipse fill="none" stroke="black" cx="312.04" cy="-882" rx="31.4" ry="18"/>
<text text-anchor="middle" x="312.04" y="-878.3" font-family="Times,serif" font-size="14.00">XOR</text>
</g>
<!-- gt3&#45;&gt;gt7 -->
<g id="edge4" class="edge">
<title>gt3&#45;&gt;gt7</title>
<path fill="none" stroke="black" d="M241.42,-939.17C254.23,-928.98 271.87,-914.95 286.31,-903.46"/>
<polygon fill="black" stroke="black" points="288.74,-906 294.38,-897.04 284.38,-900.53 288.74,-906"/>
</g>
<!-- gt11 -->
<g id="node12" class="node">
<title>gt11</title>
<ellipse fill="none" stroke="black" cx="290.04" cy="-666" rx="31.4" ry="18"/>
<text text-anchor="middle" x="290.04" y="-662.3" font-family="Times,serif" font-size="14.00">XOR</text>
</g>
<!-- gt3&#45;&gt;gt11 -->
<g id="edge11" class="edge">
<title>gt3&#45;&gt;gt11</title>
<path fill="none" stroke="black" d="M219,-936.15C210.94,-906.41 197.45,-842.93 212.04,-792 223.25,-752.84 250.69,-714.04 269.83,-690.3"/>
<polygon fill="black" stroke="black" points="272.56,-692.49 276.22,-682.55 267.15,-688.04 272.56,-692.49"/>
</g>
<!-- gt4 -->
<g id="node5" class="node">
<title>gt4</title>
<ellipse fill="none" stroke="black" cx="250.04" cy="-234" rx="30.59" ry="18"/>
<text text-anchor="middle" x="250.04" y="-230.3" font-family="Times,serif" font-size="14.00">IN 4</text>
</g>
<!-- gt23 -->
<g id="node24" class="node">
<title>gt23</title>
<ellipse fill="none" stroke="black" cx="330.04" cy="-162" rx="32.49" ry="18"/>
<text text-anchor="middle" x="330.04" y="-158.3" font-family="Times,serif" font-size="14.00">AND</text>
</g>
<!-- gt4&#45;&gt;gt23 -->
<g id="edge36" class="edge">
<title>gt4&#45;&gt;gt23</title>
<path fill="none" stroke="black" d="M266.61,-218.5C277.8,-208.71 292.76,-195.61 305.34,-184.6"/>
<polygon fill="black" stroke="black" points="307.98,-186.95 313.21,-177.73 303.37,-181.68 307.98,-186.95"/>
</g>
<!-- gt5 -->
<g id="node6" class="node">
<title>gt5</title>
<ellipse fill="none" stroke="black" cx="252.04" cy="-810" rx="30.59" ry="18"/>
<text text-anchor="middle" x="252.04" y="-806.3" font-family="Times,serif" font-size="14.00">IN 5</text>
</g>
<!-- gt8 -->
<g id="node9" class="node">
<title>gt8</title>
<ellipse fill="none" stroke="black" cx="479.04" cy="-738" rx="31.4" ry="18"/>
<text text-anchor="middle" x="479.04" y="-734.3" font-family="Times,serif" font-size="14.00">XOR</text>
</g>
<!-- gt5&#45;&gt;gt8 -->
<g id="edge6" class="edge">
<title>gt5&#45;&gt;gt8</title>
<path fill="none" stroke="black" d="M275.51,-798.38C280.89,-796.13 286.61,-793.87 292.04,-792 350.33,-771.89 366.88,-773.42 426.04,-756 431.48,-754.4 437.22,-752.63 442.83,-750.87"/>
<polygon fill="black" stroke="black" points="444.23,-754.1 452.69,-747.72 442.1,-747.43 444.23,-754.1"/>
</g>
<!-- gt10 -->
<g id="node11" class="node">
<title>gt10</title>
<ellipse fill="none" stroke="black" cx="342.04" cy="-738" rx="75.29" ry="18"/>
<text text-anchor="middle" x="342.04" y="-734.3" font-family="Times,serif" font-size="14.00">NOT A AND B</text>
</g>
<!-- gt5&#45;&gt;gt10 -->
<g id="edge10" class="edge">
<title>gt5&#45;&gt;gt10</title>
<path fill="none" stroke="black" d="M269.82,-795.17C282.06,-785.64 298.62,-772.77 312.79,-761.75"/>
<polygon fill="black" stroke="black" points="315.06,-764.41 320.81,-755.51 310.77,-758.89 315.06,-764.41"/>
</g>
<!-- gt12 -->
<g id="node13" class="node">
<title>gt12</title>
<ellipse fill="none" stroke="black" cx="231.04" cy="-594" rx="27" ry="18"/>
<text text-anchor="middle" x="231.04" y="-590.3" font-family="Times,serif" font-size="14.00">OR</text>
</g>
<!-- gt5&#45;&gt;gt12 -->
<g id="edge14" class="edge">
<title>gt5&#45;&gt;gt12</title>
<path fill="none" stroke="black" d="M250.35,-791.85C246.72,-754.83 238.12,-667.18 233.72,-622.39"/>
<polygon fill="black" stroke="black" points="237.19,-621.84 232.73,-612.23 230.22,-622.53 237.19,-621.84"/>
</g>
<!-- gt5&#45;&gt;gt19 -->
<g id="edge28" class="edge">
<title>gt5&#45;&gt;gt19</title>
<path fill="none" stroke="black" d="M228.34,-798.37C201.88,-786.5 158.88,-767.2 129.11,-753.84"/>
<polygon fill="black" stroke="black" points="130.51,-750.63 119.95,-749.73 127.64,-757.02 130.51,-750.63"/>
</g>
<!-- gt6&#45;&gt;gt7 -->
<g id="edge3" class="edge">
<title>gt6&#45;&gt;gt7</title>
<path fill="none" stroke="black" d="M310.53,-935.7C310.75,-927.98 311.02,-918.71 311.26,-910.11"/>
<polygon fill="black" stroke="black" points="314.76,-910.2 311.55,-900.1 307.76,-910 314.76,-910.2"/>
</g>
<!-- gt7&#45;&gt;gt8 -->
<g id="edge5" class="edge">
<title>gt7&#45;&gt;gt8</title>
<path fill="none" stroke="black" d="M342.69,-878.64C376.51,-874.34 430.12,-862.2 460.04,-828 474.78,-811.14 479.02,-785.67 479.87,-766.28"/>
<polygon fill="black" stroke="black" points="483.37,-766.29 480.04,-756.24 476.37,-766.18 483.37,-766.29"/>
</g>
<!-- gt7&#45;&gt;gt9 -->
<g id="edge7" class="edge">
<title>gt7&#45;&gt;gt9</title>
<path fill="none" stroke="black" d="M325.92,-865.81C334.01,-856.97 344.39,-845.61 353.61,-835.52"/>
<polygon fill="black" stroke="black" points="356.21,-837.87 360.38,-828.13 351.05,-833.15 356.21,-837.87"/>
</g>
<!-- gt16 -->
<g id="node17" class="node">
<title>gt16</title>
<ellipse fill="none" stroke="black" cx="427.04" cy="-306" rx="31.4" ry="18"/>
<text text-anchor="middle" x="427.04" y="-302.3" font-family="Times,serif" font-size="14.00">XOR</text>
</g>
<!-- gt8&#45;&gt;gt16 -->
<g id="edge21" class="edge">
<title>gt8&#45;&gt;gt16</title>
<path fill="none" stroke="black" d="M480.81,-719.97C483.44,-693.34 488.04,-640.21 488.04,-595 488.04,-595 488.04,-595 488.04,-449 488.04,-407.91 480.36,-397.26 463.04,-360 458.39,-350.01 451.96,-339.83 445.81,-331.08"/>
<polygon fill="black" stroke="black" points="448.55,-328.91 439.83,-322.89 442.9,-333.03 448.55,-328.91"/>
</g>
<!-- gt9&#45;&gt;gt10 -->
<g id="edge9" class="edge">
<title>gt9&#45;&gt;gt10</title>
<path fill="none" stroke="black" d="M367.8,-792.05C363.94,-784.09 359.23,-774.41 354.91,-765.51"/>
<polygon fill="black" stroke="black" points="357.94,-763.74 350.43,-756.28 351.65,-766.8 357.94,-763.74"/>
</g>
<!-- gt10&#45;&gt;gt11 -->
<g id="edge12" class="edge">
<title>gt10&#45;&gt;gt11</title>
<path fill="none" stroke="black" d="M329.45,-720.05C323,-711.38 315.05,-700.67 307.97,-691.15"/>
<polygon fill="black" stroke="black" points="310.57,-688.77 301.79,-682.83 304.95,-692.94 310.57,-688.77"/>
</g>
<!-- gt14 -->
<g id="node15" class="node">
<title>gt14</title>
<ellipse fill="none" stroke="black" cx="349.04" cy="-450" rx="31.4" ry="18"/>
<text text-anchor="middle" x="349.04" y="-446.3" font-family="Times,serif" font-size="14.00">XOR</text>
</g>
<!-- gt10&#45;&gt;gt14 -->
<g id="edge17" class="edge">
<title>gt10&#45;&gt;gt14</title>
<path fill="none" stroke="black" d="M342.45,-719.97C343.62,-672.29 346.93,-537.18 348.36,-478.63"/>
<polygon fill="black" stroke="black" points="351.87,-478.39 348.61,-468.31 344.87,-478.22 351.87,-478.39"/>
</g>
<!-- gt11&#45;&gt;gt12 -->
<g id="edge13" class="edge">
<title>gt11&#45;&gt;gt12</title>
<path fill="none" stroke="black" d="M276.94,-649.46C269.12,-640.18 259.04,-628.23 250.32,-617.88"/>
<polygon fill="black" stroke="black" points="252.81,-615.4 243.69,-610.01 247.46,-619.91 252.81,-615.4"/>
</g>
<!-- gt18 -->
<g id="node19" class="node">
<title>gt18</title>
<ellipse fill="none" stroke="black" cx="330.04" cy="-306" rx="32.49" ry="18"/>
<text text-anchor="middle" x="330.04" y="-302.3" font-family="Times,serif" font-size="14.00">AND</text>
</g>
<!-- gt11&#45;&gt;gt18 -->
<g id="edge26" class="edge">
<title>gt11&#45;&gt;gt18</title>
<path fill="none" stroke="black" d="M290.04,-647.95C290.04,-621.29 290.04,-568.11 290.04,-523 290.04,-523 290.04,-523 290.04,-449 290.04,-407.26 306.25,-361.11 318.03,-333.08"/>
<polygon fill="black" stroke="black" points="321.37,-334.19 322.13,-323.62 314.94,-331.4 321.37,-334.19"/>
</g>
<!-- gt12&#45;&gt;gt13 -->
<g id="edge15" class="edge">
<title>gt12&#45;&gt;gt13</title>
<path fill="none" stroke="black" d="M230.79,-575.7C230.68,-567.98 230.55,-558.71 230.42,-550.11"/>
<polygon fill="black" stroke="black" points="233.92,-550.05 230.28,-540.1 226.92,-550.15 233.92,-550.05"/>
</g>
<!-- gt20 -->
<g id="node21" class="node">
<title>gt20</title>
<ellipse fill="none" stroke="black" cx="104.04" cy="-522" rx="75.29" ry="18"/>
<text text-anchor="middle" x="104.04" y="-518.3" font-family="Times,serif" font-size="14.00">NOT A AND B</text>
</g>
<!-- gt12&#45;&gt;gt20 -->
<g id="edge30" class="edge">
<title>gt12&#45;&gt;gt20</title>
<path fill="none" stroke="black" d="M210.91,-581.91C192.35,-571.68 164.31,-556.22 141.61,-543.71"/>
<polygon fill="black" stroke="black" points="143.01,-540.49 132.57,-538.73 139.63,-546.62 143.01,-540.49"/>
</g>
<!-- gt13&#45;&gt;gt14 -->
<g id="edge18" class="edge">
<title>gt13&#45;&gt;gt14</title>
<path fill="none" stroke="black" d="M251.59,-508.32C270.49,-497.2 298.16,-480.92 319.19,-468.55"/>
<polygon fill="black" stroke="black" points="321.2,-471.43 328.05,-463.35 317.65,-465.4 321.2,-471.43"/>
</g>
<!-- gt14&#45;&gt;gt15 -->
<g id="edge19" class="edge">
<title>gt14&#45;&gt;gt15</title>
<path fill="none" stroke="black" d="M365.2,-434.5C376.32,-424.51 391.28,-411.09 403.7,-399.94"/>
<polygon fill="black" stroke="black" points="406.32,-402.29 411.43,-393.01 401.65,-397.08 406.32,-402.29"/>
</g>
<!-- gt14&#45;&gt;gt17 -->
<g id="edge24" class="edge">
<title>gt14&#45;&gt;gt17</title>
<path fill="none" stroke="black" d="M349.04,-431.7C349.04,-423.98 349.04,-414.71 349.04,-406.11"/>
<polygon fill="black" stroke="black" points="352.54,-406.1 349.04,-396.1 345.54,-406.1 352.54,-406.1"/>
</g>
<!-- gt15&#45;&gt;gt16 -->
<g id="edge22" class="edge">
<title>gt15&#45;&gt;gt16</title>
<path fill="none" stroke="black" d="M427.04,-359.7C427.04,-351.98 427.04,-342.71 427.04,-334.11"/>
<polygon fill="black" stroke="black" points="430.54,-334.1 427.04,-324.1 423.54,-334.1 430.54,-334.1"/>
</g>
<!-- gt24 -->
<g id="node25" class="node">
<title>gt24</title>
<ellipse fill="none" stroke="black" cx="378.04" cy="-90" rx="31.4" ry="18"/>
<text text-anchor="middle" x="378.04" y="-86.3" font-family="Times,serif" font-size="14.00">XOR</text>
</g>
<!-- gt16&#45;&gt;gt24 -->
<g id="edge37" class="edge">
<title>gt16&#45;&gt;gt24</title>
<path fill="none" stroke="black" d="M423.11,-287.85C414.59,-250.66 394.38,-162.37 384.17,-117.77"/>
<polygon fill="black" stroke="black" points="387.56,-116.9 381.91,-107.94 380.73,-118.46 387.56,-116.9"/>
</g>
<!-- gt17&#45;&gt;gt18 -->
<g id="edge25" class="edge">
<title>gt17&#45;&gt;gt18</title>
<path fill="none" stroke="black" d="M344.44,-360.05C342.32,-352.26 339.76,-342.82 337.39,-334.08"/>
<polygon fill="black" stroke="black" points="340.72,-333.01 334.72,-324.28 333.97,-334.84 340.72,-333.01"/>
</g>
<!-- gt22 -->
<g id="node23" class="node">
<title>gt22</title>
<ellipse fill="none" stroke="black" cx="330.04" cy="-234" rx="31.4" ry="18"/>
<text text-anchor="middle" x="330.04" y="-230.3" font-family="Times,serif" font-size="14.00">XOR</text>
</g>
<!-- gt18&#45;&gt;gt22 -->
<g id="edge33" class="edge">
<title>gt18&#45;&gt;gt22</title>
<path fill="none" stroke="black" d="M330.04,-287.7C330.04,-279.98 330.04,-270.71 330.04,-262.11"/>
<polygon fill="black" stroke="black" points="333.54,-262.1 330.04,-252.1 326.54,-262.1 333.54,-262.1"/>
</g>
<!-- gt19&#45;&gt;gt20 -->
<g id="edge29" class="edge">
<title>gt19&#45;&gt;gt20</title>
<path fill="none" stroke="black" d="M96.68,-719.85C98.06,-682.83 101.34,-595.18 103.01,-550.39"/>
<polygon fill="black" stroke="black" points="106.52,-550.36 103.39,-540.23 99.52,-550.09 106.52,-550.36"/>
</g>
<!-- gt20&#45;&gt;gt21 -->
<g id="edge31" class="edge">
<title>gt20&#45;&gt;gt21</title>
<path fill="none" stroke="black" d="M104.04,-503.7C104.04,-495.98 104.04,-486.71 104.04,-478.11"/>
<polygon fill="black" stroke="black" points="107.54,-478.1 104.04,-468.1 100.54,-478.1 107.54,-478.1"/>
</g>
<!-- gt21&#45;&gt;gt22 -->
<g id="edge34" class="edge">
<title>gt21&#45;&gt;gt22</title>
<path fill="none" stroke="black" d="M119.21,-434.63C157.95,-397.95 260.64,-300.71 306.89,-256.92"/>
<polygon fill="black" stroke="black" points="309.47,-259.29 314.32,-249.88 304.66,-254.21 309.47,-259.29"/>
</g>
<!-- gt22&#45;&gt;gt23 -->
<g id="edge35" class="edge">
<title>gt22&#45;&gt;gt23</title>
<path fill="none" stroke="black" d="M330.04,-215.7C330.04,-207.98 330.04,-198.71 330.04,-190.11"/>
<polygon fill="black" stroke="black" points="333.54,-190.1 330.04,-180.1 326.54,-190.1 333.54,-190.1"/>
</g>
<!-- gt23&#45;&gt;gt24 -->
<g id="edge38" class="edge">
<title>gt23&#45;&gt;gt24</title>
<path fill="none" stroke="black" d="M341.17,-144.76C347.11,-136.11 354.53,-125.27 361.16,-115.6"/>
<polygon fill="black" stroke="black" points="364.19,-117.37 366.96,-107.15 358.42,-113.42 364.19,-117.37"/>
</g>
<!-- out0 -->
<g id="node26" class="node">
<title>out0</title>
<ellipse fill="none" stroke="black" cx="378.04" cy="-18" rx="31.7" ry="18"/>
<text text-anchor="middle" x="378.04" y="-14.3" font-family="Times,serif" font-size="14.00">out0</text>
</g>
<!-- gt24&#45;&gt;out0 -->
<g id="edge39" class="edge">
<title>gt24&#45;&gt;out0</title>
<path fill="none" stroke="black" d="M378.04,-71.7C378.04,-63.98 378.04,-54.71 378.04,-46.11"/>
<polygon fill="black" stroke="black" points="381.54,-46.1 378.04,-36.1 374.54,-46.1 381.54,-46.1"/>
</g>
</g>
</svg>
